<svg width="37" height="37" viewBox="0 0 37 37" fill="none" xmlns="http://www.w3.org/2000/svg">
<mask id="mask0_2036_84" style="mask-type:alpha" maskUnits="userSpaceOnUse" x="0" y="0" width="37" height="37">
<path d="M0 0H37V37H0V0Z" fill="#D9D9D9"/>
</mask>
<g mask="url(#mask0_2036_84)">
<path d="M16.9267 7.39999V1.19354H20.0733V7.39999H16.9267ZM27.3892 11.6669L25.1866 9.49467L29.6312 5.07257L31.8338 7.28362L27.3892 11.6669ZM29.5132 19.8129V16.7097H35.8065V19.8129H29.5132ZM29.6312 31.4112L25.1866 27.0279L27.3892 24.8556L31.8732 29.2002L29.6312 31.4112ZM9.61078 11.6669L5.16617 7.28362L7.40814 5.07257L11.8134 9.49467L9.61078 11.6669ZM9.06012 29.1226H16.14C16.7956 29.1226 17.3528 28.8963 17.8117 28.4437C18.2706 27.9912 18.5 27.4417 18.5 26.7952C18.5 26.1487 18.2771 25.5991 17.8313 25.1466C17.3856 24.694 16.8349 24.4677 16.1794 24.4677H14.1734L13.3867 22.6058C13.0196 21.7524 12.4427 21.0736 11.6561 20.5693C10.8694 20.065 10.0041 19.8129 9.06012 19.8129C7.74902 19.8129 6.63459 20.2655 5.71683 21.1706C4.79906 22.0757 4.34018 23.1747 4.34018 24.4677C4.34018 25.7607 4.79906 26.8598 5.71683 27.7649C6.63459 28.67 7.74902 29.1226 9.06012 29.1226ZM9.06012 32.2258C6.8837 32.2258 5.0285 31.4694 3.49452 29.9566C1.96054 28.4437 1.19355 26.6141 1.19355 24.4677C1.19355 22.3213 1.96054 20.4917 3.49452 18.9789C5.0285 17.4661 6.8837 16.7097 9.06012 16.7097C10.6334 16.7097 12.0691 17.1299 13.3671 17.9704C14.6651 18.8108 15.6287 19.9422 16.258 21.3645C17.7789 21.3645 19.0572 21.9205 20.093 23.0325C21.1287 24.1445 21.6466 25.4763 21.6466 27.0279C21.5942 28.5019 21.037 29.7368 19.975 30.7324C18.913 31.728 17.6347 32.2258 16.14 32.2258H9.06012ZM21.6466 27.0279C21.5155 26.5107 21.3844 26.0064 21.2533 25.5151C21.1222 25.0237 20.9911 24.5195 20.86 24.0023C22.04 23.5109 22.9905 22.748 23.7116 21.7136C24.4327 20.6792 24.7933 19.5284 24.7933 18.2613C24.7933 16.5545 24.177 15.0934 22.9446 13.878C21.7122 12.6625 20.2306 12.0548 18.5 12.0548C16.9267 12.0548 15.55 12.5591 14.3701 13.5677C13.1901 14.5762 12.4952 15.8563 12.2854 17.4079C11.761 17.2786 11.2234 17.1622 10.6728 17.0588C10.1221 16.9553 9.58456 16.839 9.06012 16.7097C9.42723 14.434 10.5089 12.572 12.3051 11.1239C14.1013 9.67569 16.1663 8.95161 18.5 8.95161C21.1222 8.95161 23.3511 9.85672 25.1866 11.6669C27.0221 13.4771 27.9399 15.6753 27.9399 18.2613C27.9399 20.2525 27.363 22.0433 26.2092 23.6337C25.0555 25.2241 23.5346 26.3555 21.6466 27.0279Z" fill="#F7B714"/>
</g>
</svg>
