<svg width="28" height="30" viewBox="0 0 28 30" fill="none" xmlns="http://www.w3.org/2000/svg">
<g filter="url(#filter0_d_2128_183)">
<mask id="mask0_2128_183" style="mask-type:alpha" maskUnits="userSpaceOnUse" x="2" y="0" width="24" height="24">
<rect x="2" width="24" height="24" fill="#D9D9D9"/>
</mask>
<g mask="url(#mask0_2128_183)">
<path d="M11 17C11.2833 17 11.5208 16.9042 11.7125 16.7125C11.9042 16.5208 12 16.2833 12 16C12 15.7167 11.9042 15.4792 11.7125 15.2875C11.5208 15.0958 11.2833 15 11 15C10.7167 15 10.4792 15.0958 10.2875 15.2875C10.0958 15.4792 10 15.7167 10 16C10 16.2833 10.0958 16.5208 10.2875 16.7125C10.4792 16.9042 10.7167 17 11 17ZM14 17C14.2833 17 14.5208 16.9042 14.7125 16.7125C14.9042 16.5208 15 16.2833 15 16C15 15.7167 14.9042 15.4792 14.7125 15.2875C14.5208 15.0958 14.2833 15 14 15C13.7167 15 13.4792 15.0958 13.2875 15.2875C13.0958 15.4792 13 15.7167 13 16C13 16.2833 13.0958 16.5208 13.2875 16.7125C13.4792 16.9042 13.7167 17 14 17ZM17 17C17.2833 17 17.5208 16.9042 17.7125 16.7125C17.9042 16.5208 18 16.2833 18 16C18 15.7167 17.9042 15.4792 17.7125 15.2875C17.5208 15.0958 17.2833 15 17 15C16.7167 15 16.4792 15.0958 16.2875 15.2875C16.0958 15.4792 16 15.7167 16 16C16 16.2833 16.0958 16.5208 16.2875 16.7125C16.4792 16.9042 16.7167 17 17 17ZM12.95 14L18.575 8.35L17.175 6.925L12.925 11.175L10.8 9.05L9.4 10.45L12.95 14ZM14 22C12.6167 22 11.3167 21.7375 10.1 21.2125C8.88333 20.6875 7.825 19.975 6.925 19.075C6.025 18.175 5.3125 17.1167 4.7875 15.9C4.2625 14.6833 4 13.3833 4 12C4 10.6167 4.2625 9.31667 4.7875 8.1C5.3125 6.88333 6.025 5.825 6.925 4.925C7.825 4.025 8.88333 3.3125 10.1 2.7875C11.3167 2.2625 12.6167 2 14 2C15.3833 2 16.6833 2.2625 17.9 2.7875C19.1167 3.3125 20.175 4.025 21.075 4.925C21.975 5.825 22.6875 6.88333 23.2125 8.1C23.7375 9.31667 24 10.6167 24 12C24 13.3833 23.7375 14.6833 23.2125 15.9C22.6875 17.1167 21.975 18.175 21.075 19.075C20.175 19.975 19.1167 20.6875 17.9 21.2125C16.6833 21.7375 15.3833 22 14 22ZM14 20C16.2333 20 18.125 19.225 19.675 17.675C21.225 16.125 22 14.2333 22 12C22 9.76667 21.225 7.875 19.675 6.325C18.125 4.775 16.2333 4 14 4C11.7667 4 9.875 4.775 8.325 6.325C6.775 7.875 6 9.76667 6 12C6 14.2333 6.775 16.125 8.325 17.675C9.875 19.225 11.7667 20 14 20Z" fill="#1C1B1F"/>
</g>
</g>
<defs>
<filter id="filter0_d_2128_183" x="0" y="2" width="28" height="28" filterUnits="userSpaceOnUse" color-interpolation-filters="sRGB">
<feFlood flood-opacity="0" result="BackgroundImageFix"/>
<feColorMatrix in="SourceAlpha" type="matrix" values="0 0 0 0 0 0 0 0 0 0 0 0 0 0 0 0 0 0 127 0" result="hardAlpha"/>
<feOffset dy="4"/>
<feGaussianBlur stdDeviation="2"/>
<feComposite in2="hardAlpha" operator="out"/>
<feColorMatrix type="matrix" values="0 0 0 0 0 0 0 0 0 0 0 0 0 0 0 0 0 0 0.3 0"/>
<feBlend mode="normal" in2="BackgroundImageFix" result="effect1_dropShadow_2128_183"/>
<feBlend mode="normal" in="SourceGraphic" in2="effect1_dropShadow_2128_183" result="shape"/>
</filter>
</defs>
</svg>
