<svg width="24" height="24" viewBox="0 0 24 24" fill="none" xmlns="http://www.w3.org/2000/svg">
<mask id="mask0_2133_20" style="mask-type:alpha" maskUnits="userSpaceOnUse" x="0" y="0" width="24" height="24">
<rect width="24" height="24" fill="#D9D9D9"/>
</mask>
<g mask="url(#mask0_2133_20)">
<path d="M18 18C17.45 18 16.9792 17.8042 16.5875 17.4125C16.1958 17.0208 16 16.55 16 16C16 15.45 16.1958 14.9792 16.5875 14.5875C16.9792 14.1958 17.45 14 18 14C18.55 14 19.0208 14.1958 19.4125 14.5875C19.8042 14.9792 20 15.45 20 16C20 16.55 19.8042 17.0208 19.4125 17.4125C19.0208 17.8042 18.55 18 18 18ZM14 22V21.425C14 20.6917 14.3667 20.1042 15.1 19.6625C15.8333 19.2208 16.8 19 18 19C19.2 19 20.1667 19.2208 20.9 19.6625C21.6333 20.1042 22 20.6917 22 21.425V22H14ZM17 12H15V7C15 6.15 14.7 5.4375 14.1 4.8625C13.5 4.2875 12.8 4 12 4C11.2 4 10.5 4.2875 9.9 4.8625C9.3 5.4375 9 6.15 9 7V17C9 17.8 9.3 18.5 9.9 19.1C10.5 19.7 11.2 20 12 20V22C10.5833 22 9.39583 21.5208 8.4375 20.5625C7.47917 19.6042 7 18.4167 7 17V7C7 5.58333 7.47917 4.39583 8.4375 3.4375C9.39583 2.47917 10.5833 2 12 2C13.4167 2 14.6042 2.47917 15.5625 3.4375C16.5208 4.39583 17 5.58333 17 7V12ZM12 10C12.55 10 13.0208 9.80417 13.4125 9.4125C13.8042 9.02083 14 8.55 14 8C14 7.45 13.8042 6.97917 13.4125 6.5875C13.0208 6.19583 12.55 6 12 6C11.45 6 10.9792 6.19583 10.5875 6.5875C10.1958 6.97917 10 7.45 10 8C10 8.55 10.1958 9.02083 10.5875 9.4125C10.9792 9.80417 11.45 10 12 10ZM10 16C10 16.55 10.1958 17.0208 10.5875 17.4125C10.9792 17.8042 11.45 18 12 18C12.55 18 13.0208 17.8042 13.4125 17.4125C13.8042 17.0208 14 16.55 14 16C14 15.45 13.8042 14.9792 13.4125 14.5875C13.0208 14.1958 12.55 14 12 14C11.45 14 10.9792 14.1958 10.5875 14.5875C10.1958 14.9792 10 15.45 10 16ZM12 17C11.7 17 11.4583 16.8958 11.275 16.6875C11.0917 16.4792 11 16.25 11 16C11 15.75 11.0917 15.5208 11.275 15.3125C11.4583 15.1042 11.7 15 12 15C12.3 15 12.5417 15.0917 12.725 15.275C12.9083 15.4583 13 15.7 13 16C13 16.25 12.9083 16.4792 12.725 16.6875C12.5417 16.8958 12.3 17 12 17Z" fill="#1C1B1F"/>
</g>
</svg>
