<svg width="30" height="30" viewBox="0 0 30 30" fill="none" xmlns="http://www.w3.org/2000/svg">
<mask id="mask0_2006_25" style="mask-type:alpha" maskUnits="userSpaceOnUse" x="0" y="0" width="30" height="30">
<rect width="30" height="30" fill="#D9D9D9"/>
</mask>
<g mask="url(#mask0_2006_25)">
<path d="M15 27.5C14.3125 27.5 13.724 27.2552 13.2344 26.7656C12.7448 26.276 12.5 25.6875 12.5 25H17.5C17.5 25.6875 17.2552 26.276 16.7656 26.7656C16.276 27.2552 15.6875 27.5 15 27.5ZM5 23.75V21.25H7.5V12.5C7.5 10.7708 8.02083 9.23438 9.0625 7.89062C10.1042 6.54688 11.4583 5.66667 13.125 5.25V2.5H16.875V5.25C17.3542 5.35417 17.8073 5.51042 18.2344 5.71875C18.6615 5.92708 19.0729 6.17708 19.4688 6.46875C18.9271 6.63542 18.3906 6.81771 17.8594 7.01562C17.3281 7.21354 16.8125 7.4375 16.3125 7.6875C16.0833 7.625 15.8646 7.57812 15.6563 7.54688C15.4479 7.51562 15.2292 7.5 15 7.5C13.625 7.5 12.4479 7.98958 11.4688 8.96875C10.4896 9.94792 10 11.125 10 12.5V21.25H25V23.75H5ZM15.9375 13L14.5938 11.6875C15.5104 10.7708 16.5781 10.0521 17.7969 9.53125C19.0156 9.01042 20.3125 8.75 21.6875 8.75C23.0625 8.75 24.3542 9.01042 25.5625 9.53125C26.7708 10.0521 27.8333 10.7708 28.75 11.6875L27.4063 13C26.6771 12.2708 25.8177 11.6927 24.8281 11.2656C23.8385 10.8385 22.7812 10.625 21.6562 10.625C20.5312 10.625 19.4792 10.8385 18.5 11.2656C17.5208 11.6927 16.6667 12.2708 15.9375 13ZM18.5938 15.6563L17.25 14.3125C17.8125 13.75 18.4688 13.3073 19.2188 12.9844C19.9688 12.6615 20.7812 12.5 21.6562 12.5C22.5312 12.5 23.349 12.6615 24.1094 12.9844C24.8698 13.3073 25.5312 13.75 26.0938 14.3125L24.75 15.6563C24.3542 15.2396 23.8958 14.9219 23.375 14.7031C22.8542 14.4844 22.2917 14.375 21.6875 14.375C21.0833 14.375 20.5156 14.4896 19.9844 14.7188C19.4531 14.9479 18.9896 15.2604 18.5938 15.6563ZM21.6875 18.75L19.9062 17C20.1354 16.7708 20.401 16.5885 20.7031 16.4531C21.0052 16.3177 21.3333 16.25 21.6875 16.25C22.0417 16.25 22.3646 16.3177 22.6562 16.4531C22.9479 16.5885 23.2083 16.7708 23.4375 17L21.6875 18.75Z" fill="#1C1B1F"/>
</g>
</svg>
