<svg width="8" height="8" viewBox="0 0 8 8" fill="none" xmlns="http://www.w3.org/2000/svg">
<mask id="mask0_2491_7" style="mask-type:alpha" maskUnits="userSpaceOnUse" x="0" y="0" width="8" height="8">
<rect width="8" height="8" fill="#D9D9D9"/>
</mask>
<g mask="url(#mask0_2491_7)">
<path d="M4.6665 4.33334H6.33317V3.66667H4.6665V4.33334ZM4.6665 3.33334H6.33317V2.66667H4.6665V3.33334ZM1.6665 5.33334H4.33317V5.15C4.33317 4.9 4.21095 4.70139 3.9665 4.55417C3.72206 4.40695 3.39984 4.33334 2.99984 4.33334C2.59984 4.33334 2.27761 4.40695 2.03317 4.55417C1.78873 4.70139 1.6665 4.9 1.6665 5.15V5.33334ZM2.99984 4C3.18317 4 3.34012 3.93472 3.47067 3.80417C3.60123 3.67361 3.6665 3.51667 3.6665 3.33334C3.6665 3.15 3.60123 2.99306 3.47067 2.8625C3.34012 2.73195 3.18317 2.66667 2.99984 2.66667C2.8165 2.66667 2.65956 2.73195 2.529 2.8625C2.39845 2.99306 2.33317 3.15 2.33317 3.33334C2.33317 3.51667 2.39845 3.67361 2.529 3.80417C2.65956 3.93472 2.8165 4 2.99984 4ZM1.33317 6.66667C1.14984 6.66667 0.992893 6.60139 0.862337 6.47084C0.731782 6.34028 0.666504 6.18334 0.666504 6V2C0.666504 1.81667 0.731782 1.65972 0.862337 1.52917C0.992893 1.39861 1.14984 1.33334 1.33317 1.33334H6.6665C6.84984 1.33334 7.00678 1.39861 7.13734 1.52917C7.26789 1.65972 7.33317 1.81667 7.33317 2V6C7.33317 6.18334 7.26789 6.34028 7.13734 6.47084C7.00678 6.60139 6.84984 6.66667 6.6665 6.66667H1.33317ZM1.33317 6H6.6665V2H1.33317V6Z" fill="#9CA6A3"/>
</g>
</svg>
