<svg width="10" height="10" viewBox="0 0 10 10" fill="none" xmlns="http://www.w3.org/2000/svg">
<mask id="mask0_2312_93" style="mask-type:alpha" maskUnits="userSpaceOnUse" x="0" y="0" width="10" height="10">
<rect width="10" height="10" fill="#D9D9D9"/>
</mask>
<g mask="url(#mask0_2312_93)">
<path d="M5.00033 9.70832L3.60449 8.33332H1.66699V6.39582L0.291992 4.99999L1.66699 3.60416V1.66666H3.60449L5.00033 0.291656L6.39616 1.66666H8.33366V3.60416L9.70866 4.99999L8.33366 6.39582V8.33332H6.39616L5.00033 9.70832ZM5.00033 7.08332C5.57671 7.08332 6.06803 6.8802 6.47428 6.47395C6.88053 6.0677 7.08366 5.57638 7.08366 4.99999C7.08366 4.4236 6.88053 3.93228 6.47428 3.52603C6.06803 3.11978 5.57671 2.91666 5.00033 2.91666C4.42394 2.91666 3.93262 3.11978 3.52637 3.52603C3.12012 3.93228 2.91699 4.4236 2.91699 4.99999C2.91699 5.57638 3.12012 6.0677 3.52637 6.47395C3.93262 6.8802 4.42394 7.08332 5.00033 7.08332ZM5.00033 6.24999C4.6531 6.24999 4.35796 6.12846 4.11491 5.88541C3.87185 5.64235 3.75033 5.34721 3.75033 4.99999C3.75033 4.65277 3.87185 4.35763 4.11491 4.11457C4.35796 3.87152 4.6531 3.74999 5.00033 3.74999C5.34755 3.74999 5.64269 3.87152 5.88574 4.11457C6.1288 4.35763 6.25033 4.65277 6.25033 4.99999C6.25033 5.34721 6.1288 5.64235 5.88574 5.88541C5.64269 6.12846 5.34755 6.24999 5.00033 6.24999ZM5.00033 8.54166L6.04199 7.49999H7.50033V6.04166L8.54199 4.99999L7.50033 3.95832V2.49999H6.04199L5.00033 1.45832L3.95866 2.49999H2.50033V3.95832L1.45866 4.99999L2.50033 6.04166V7.49999H3.95866L5.00033 8.54166Z" fill="#D00202"/>
</g>
</svg>
