<svg width="10" height="10" viewBox="0 0 10 10" fill="none" xmlns="http://www.w3.org/2000/svg">
<mask id="mask0_2312_105" style="mask-type:alpha" maskUnits="userSpaceOnUse" x="0" y="0" width="10" height="10">
<rect width="10" height="10" fill="#D9D9D9"/>
</mask>
<g mask="url(#mask0_2312_105)">
<path d="M5.00033 9.70832L3.60449 8.33332H1.66699V6.39582L0.291992 4.99999L1.66699 3.60416V1.66666H3.60449L5.00033 0.291656L6.39616 1.66666H8.33366V3.60416L9.70866 4.99999L8.33366 6.39582V8.33332H6.39616L5.00033 9.70832ZM5.00033 8.54166L6.04199 7.49999H7.50033V6.04166L8.54199 4.99999L7.50033 3.95832V2.49999H6.04199L5.00033 1.45832L3.95866 2.49999H2.50033V3.95832L1.45866 4.99999L2.50033 6.04166V7.49999H3.95866L5.00033 8.54166Z" fill="black"/>
</g>
</svg>
