<svg width="24" height="24" viewBox="0 0 24 24" fill="none" xmlns="http://www.w3.org/2000/svg">
<mask id="mask0_2038_167" style="mask-type:alpha" maskUnits="userSpaceOnUse" x="0" y="0" width="24" height="24">
<rect y="0.365715" width="24" height="23.1771" fill="#D9D9D9"/>
</mask>
<g mask="url(#mask0_2038_167)">
<path d="M8 17.7486H9.5V12.92H12L13 14.8514H18V9.05714H15L14 7.12571H8V17.7486ZM13.925 13.4029L12.925 11.4714H9.5V8.57429H13.075L14.075 10.5057H16.5V13.4029H13.925ZM12 21.6114C10.6167 21.6114 9.31667 21.3579 8.1 20.8509C6.88333 20.3439 5.825 19.6559 4.925 18.7867C4.025 17.9176 3.3125 16.8955 2.7875 15.7206C2.2625 14.5456 2 13.2902 2 11.9543C2 10.6184 2.2625 9.36295 2.7875 8.188C3.3125 7.01305 4.025 5.991 4.925 5.12186C5.825 4.25271 6.88333 3.56464 8.1 3.05764C9.31667 2.55064 10.6167 2.29714 12 2.29714C13.3833 2.29714 14.6833 2.55064 15.9 3.05764C17.1167 3.56464 18.175 4.25271 19.075 5.12186C19.975 5.991 20.6875 7.01305 21.2125 8.188C21.7375 9.36295 22 10.6184 22 11.9543C22 13.2902 21.7375 14.5456 21.2125 15.7206C20.6875 16.8955 19.975 17.9176 19.075 18.7867C18.175 19.6559 17.1167 20.3439 15.9 20.8509C14.6833 21.3579 13.3833 21.6114 12 21.6114ZM12 19.68C14.2333 19.68 16.125 18.9316 17.675 17.4347C19.225 15.9379 20 14.111 20 11.9543C20 9.79752 19.225 7.97071 17.675 6.47386C16.125 4.977 14.2333 4.22857 12 4.22857C9.76667 4.22857 7.875 4.977 6.325 6.47386C4.775 7.97071 4 9.79752 4 11.9543C4 14.111 4.775 15.9379 6.325 17.4347C7.875 18.9316 9.76667 19.68 12 19.68Z" fill="#1C1B1F"/>
</g>
</svg>
