<svg width="24" height="24" viewBox="0 0 24 24" fill="none" xmlns="http://www.w3.org/2000/svg">
<mask id="mask0_2038_137" style="mask-type:alpha" maskUnits="userSpaceOnUse" x="0" y="0" width="24" height="24">
<rect width="24" height="23.1771" fill="#D9D9D9"/>
</mask>
<g mask="url(#mask0_2038_137)">
<path d="M7 1.93143H17V9.51228C17 9.88247 16.9167 10.2124 16.75 10.5021C16.5833 10.7919 16.35 11.0252 16.05 11.2023L12.5 13.2303L13.2 15.4514H17L13.9 17.576L15.1 21.2457L12 18.9763L8.9 21.2457L10.1 17.576L7 15.4514H10.8L11.5 13.2303L7.95 11.2023C7.65 11.0252 7.41667 10.7919 7.25 10.5021C7.08333 10.2124 7 9.88247 7 9.51228V1.93143ZM9 3.86286V9.51228L11 10.6711V3.86286H9ZM15 3.86286H13V10.6711L15 9.51228V3.86286Z" fill="#1C1B1F"/>
</g>
</svg>
