<svg width="24" height="25" viewBox="0 0 24 25" fill="none" xmlns="http://www.w3.org/2000/svg">
<mask id="mask0_2038_149" style="mask-type:alpha" maskUnits="userSpaceOnUse" x="0" y="0" width="24" height="25">
<rect y="0.965492" width="24" height="23.1771" fill="#D9D9D9"/>
</mask>
<g mask="url(#mask0_2038_149)">
<path d="M5 21.2457C4.45 21.2457 3.97917 21.0566 3.5875 20.6784C3.19583 20.3001 3 19.8454 3 19.3143V5.79429C3 5.26314 3.19583 4.80845 3.5875 4.43022C3.97917 4.05198 4.45 3.86286 5 3.86286H19C19.55 3.86286 20.0208 4.05198 20.4125 4.43022C20.8042 4.80845 21 5.26314 21 5.79429V12.2646C20.6833 12.1197 20.3583 11.995 20.025 11.8904C19.6917 11.7857 19.35 11.7093 19 11.661V5.79429H5V19.3143H11.05C11.1 19.6684 11.1792 20.0064 11.2875 20.3283C11.3958 20.6502 11.525 20.956 11.675 21.2457H5ZM5 19.3143V5.79429V11.661V11.5886V19.3143ZM7 17.3829H11.075C11.125 17.0449 11.2042 16.7149 11.3125 16.393C11.4208 16.0711 11.5417 15.7572 11.675 15.4514H7V17.3829ZM7 13.52H13.1C13.6333 13.0371 14.2292 12.6348 14.8875 12.3129C15.5458 11.991 16.25 11.7737 17 11.661V11.5886H7V13.52ZM7 9.65714H17V7.72571H7V9.65714ZM18 23.1771C16.6167 23.1771 15.4375 22.7064 14.4625 21.7648C13.4875 20.8232 13 19.6845 13 18.3486C13 17.0127 13.4875 15.8739 14.4625 14.9324C15.4375 13.9908 16.6167 13.52 18 13.52C19.3833 13.52 20.5625 13.9908 21.5375 14.9324C22.5125 15.8739 23 17.0127 23 18.3486C23 19.6845 22.5125 20.8232 21.5375 21.7648C20.5625 22.7064 19.3833 23.1771 18 23.1771ZM17.5 21.2457H18.5V18.8314H21V17.8657H18.5V15.4514H17.5V17.8657H15V18.8314H17.5V21.2457Z" fill="#1C1B1F"/>
</g>
</svg>
