<svg width="10" height="10" viewBox="0 0 10 10" fill="none" xmlns="http://www.w3.org/2000/svg">
<mask id="mask0_2046_185" style="mask-type:alpha" maskUnits="userSpaceOnUse" x="0" y="0" width="10" height="10">
<rect width="10" height="10" fill="#D9D9D9"/>
</mask>
<g mask="url(#mask0_2046_185)">
<path d="M8.52084 9.70833L7.14584 8.33333H1.66668C1.43751 8.33333 1.24133 8.25173 1.07814 8.08854C0.914941 7.92534 0.833344 7.72916 0.833344 7.49999V2.49999C0.833344 2.27083 0.914941 2.07465 1.07814 1.91145C1.24133 1.74826 1.43751 1.66666 1.66668 1.66666V2.85416L0.270844 1.45833L0.864594 0.864578L9.11459 9.11458L8.52084 9.70833ZM1.66668 7.49999H6.31251L2.14584 3.33333H1.66668V7.49999ZM9.07293 7.88541L8.33334 7.14583V3.33333H4.52084L2.85418 1.66666H8.33334C8.56251 1.66666 8.75869 1.74826 8.92189 1.91145C9.08508 2.07465 9.16668 2.27083 9.16668 2.49999V7.49999C9.16668 7.56944 9.15973 7.63715 9.14584 7.70312C9.13196 7.76909 9.10765 7.82986 9.07293 7.88541ZM6.32293 5.13541L5.71876 4.53124L6.31251 3.93749L6.91668 4.54166L6.32293 5.13541ZM5.72918 5.72916L4.56251 6.89583L3.08334 5.41666L3.68751 4.81249L4.56251 5.68749L5.12501 5.12499L5.72918 5.72916Z" fill="#709505"/>
</g>
</svg>
