<svg width="24" height="24" viewBox="0 0 24 24" fill="none" xmlns="http://www.w3.org/2000/svg">
<mask id="mask0_2038_185" style="mask-type:alpha" maskUnits="userSpaceOnUse" x="0" y="0" width="24" height="24">
<rect y="0.73143" width="24" height="23.1771" fill="#D9D9D9"/>
</mask>
<g mask="url(#mask0_2038_185)">
<path d="M5 21.9771C4.45 21.9771 3.97917 21.788 3.5875 21.4098C3.19583 21.0315 3 20.5769 3 20.0457V9.15729C2.7 8.98024 2.45833 8.75088 2.275 8.46921C2.09167 8.18755 2 7.86162 2 7.49143V4.59429C2 4.06314 2.19583 3.60845 2.5875 3.23021C2.97917 2.85198 3.45 2.66286 4 2.66286H20C20.55 2.66286 21.0208 2.85198 21.4125 3.23021C21.8042 3.60845 22 4.06314 22 4.59429V7.49143C22 7.86162 21.9083 8.18755 21.725 8.46921C21.5417 8.75088 21.3 8.98024 21 9.15729V20.0457C21 20.5769 20.8042 21.0315 20.4125 21.4098C20.0208 21.788 19.55 21.9771 19 21.9771H5ZM5 9.42286V20.0457H19V9.42286H5ZM4 7.49143H20V4.59429H4V7.49143ZM9 14.2514H15V12.32H9V14.2514Z" fill="#1C1B1F"/>
</g>
</svg>
