<svg width="20" height="21" viewBox="0 0 20 21" fill="none" xmlns="http://www.w3.org/2000/svg">
<path d="M8.6 14.9966L15.65 8.18829L14.25 6.83629L8.6 12.2926L5.75 9.54029L4.35 10.8923L8.6 14.9966ZM10 20.2114C8.61667 20.2114 7.31667 19.9579 6.1 19.4509C4.88333 18.9439 3.825 18.2559 2.925 17.3867C2.025 16.5176 1.3125 15.4955 0.7875 14.3206C0.2625 13.1456 0 11.8902 0 10.5543C0 9.21838 0.2625 7.96295 0.7875 6.788C1.3125 5.61305 2.025 4.591 2.925 3.72186C3.825 2.85272 4.88333 2.16464 6.1 1.65764C7.31667 1.15064 8.61667 0.897144 10 0.897144C11.3833 0.897144 12.6833 1.15064 13.9 1.65764C15.1167 2.16464 16.175 2.85272 17.075 3.72186C17.975 4.591 18.6875 5.61305 19.2125 6.788C19.7375 7.96295 20 9.21838 20 10.5543C20 11.8902 19.7375 13.1456 19.2125 14.3206C18.6875 15.4955 17.975 16.5176 17.075 17.3867C16.175 18.2559 15.1167 18.9439 13.9 19.4509C12.6833 19.9579 11.3833 20.2114 10 20.2114ZM10 18.28C12.2333 18.28 14.125 17.5316 15.675 16.0347C17.225 14.5379 18 12.711 18 10.5543C18 8.39753 17.225 6.57072 15.675 5.07386C14.125 3.577 12.2333 2.82857 10 2.82857C7.76667 2.82857 5.875 3.577 4.325 5.07386C2.775 6.57072 2 8.39753 2 10.5543C2 12.711 2.775 14.5379 4.325 16.0347C5.875 17.5316 7.76667 18.28 10 18.28Z" fill="#1C1B1F"/>
</svg>
