<svg width="24" height="24" viewBox="0 0 24 24" fill="none" xmlns="http://www.w3.org/2000/svg">
<mask id="mask0_2038_161" style="mask-type:alpha" maskUnits="userSpaceOnUse" x="0" y="0" width="24" height="24">
<rect y="0.365715" width="24" height="23.1771" fill="#D9D9D9"/>
</mask>
<g mask="url(#mask0_2038_161)">
<path d="M5 20.6455C4.45 20.6455 3.97917 20.4564 3.5875 20.0781C3.19583 19.6999 3 19.2452 3 18.7141V5.19407C3 4.66293 3.19583 4.20823 3.5875 3.83C3.97917 3.45176 4.45 3.26264 5 3.26264H13.925L11.925 5.19407H5V18.7141H19V12.0024L21 10.0709V18.7141C21 19.2452 20.8042 19.6999 20.4125 20.0781C20.0208 20.4564 19.55 20.6455 19 20.6455H5ZM9 14.8512V10.7469L18.175 1.8865C18.375 1.69335 18.6 1.5485 18.85 1.45193C19.1 1.35535 19.35 1.30707 19.6 1.30707C19.8667 1.30707 20.1208 1.35535 20.3625 1.45193C20.6042 1.5485 20.825 1.69335 21.025 1.8865L22.425 3.26264C22.6083 3.45578 22.75 3.66904 22.85 3.90243C22.95 4.13581 23 4.37321 23 4.61464C23 4.85607 22.9542 5.09347 22.8625 5.32685C22.7708 5.56023 22.625 5.7735 22.425 5.96664L13.25 14.8512H9ZM11 12.9198H12.4L18.2 7.31864L17.5 6.64264L16.775 5.96664L11 11.5436V12.9198Z" fill="#1C1B1F"/>
</g>
</svg>
