<svg width="24" height="24" viewBox="0 0 24 24" fill="none" xmlns="http://www.w3.org/2000/svg">
<mask id="mask0_2038_179" style="mask-type:alpha" maskUnits="userSpaceOnUse" x="0" y="0" width="24" height="24">
<rect y="0.365715" width="24" height="23.1771" fill="#D9D9D9"/>
</mask>
<g mask="url(#mask0_2038_179)">
<path d="M18 12.92V10.9886H22V12.92H18ZM19.2 19.68L16 17.3623L17.2 15.8171L20.4 18.1349L19.2 19.68ZM17.2 8.09143L16 6.54629L19.2 4.22857L20.4 5.77372L17.2 8.09143ZM5 18.7143V14.8514H4C3.45 14.8514 2.97917 14.6623 2.5875 14.2841C2.19583 13.9058 2 13.4511 2 12.92V10.9886C2 10.4574 2.19583 10.0027 2.5875 9.6245C2.97917 9.24626 3.45 9.05714 4 9.05714H8L13 6.16V17.7486L8 14.8514H7V18.7143H5ZM11 14.3203V9.58829L8.55 10.9886H4V12.92H8.55L11 14.3203ZM14 15.1894V8.71914C14.45 9.10543 14.8125 9.57622 15.0875 10.1315C15.3625 10.6868 15.5 11.2944 15.5 11.9543C15.5 12.6142 15.3625 13.2218 15.0875 13.7771C14.8125 14.3324 14.45 14.8031 14 15.1894Z" fill="#1C1B1F"/>
</g>
</svg>
