<svg width="10" height="10" viewBox="0 0 10 10" fill="none" xmlns="http://www.w3.org/2000/svg">
<mask id="mask0_2046_161" style="mask-type:alpha" maskUnits="userSpaceOnUse" x="0" y="0" width="10" height="10">
<rect width="10" height="10" fill="#D9D9D9"/>
</mask>
<g mask="url(#mask0_2046_161)">
<path d="M6.45833 8.30209L4.6875 6.53126L5.27083 5.94792L6.45833 7.13542L8.8125 4.78126L9.39583 5.36459L6.45833 8.30209ZM8.75 4.16667H7.91667V2.08334H7.08333V3.33334H2.91667V2.08334H2.08333V7.91667H4.58333V8.75H2.08333C1.85417 8.75 1.65799 8.66841 1.49479 8.50521C1.3316 8.34202 1.25 8.14584 1.25 7.91667V2.08334C1.25 1.85417 1.3316 1.65799 1.49479 1.4948C1.65799 1.3316 1.85417 1.25001 2.08333 1.25001H3.82292C3.89931 1.00695 4.04861 0.807297 4.27083 0.651047C4.49306 0.494797 4.73611 0.416672 5 0.416672C5.27778 0.416672 5.52604 0.494797 5.74479 0.651047C5.96354 0.807297 6.11111 1.00695 6.1875 1.25001H7.91667C8.14583 1.25001 8.34202 1.3316 8.50521 1.4948C8.6684 1.65799 8.75 1.85417 8.75 2.08334V4.16667ZM5 2.08334C5.11806 2.08334 5.21701 2.04341 5.29688 1.96355C5.37674 1.88369 5.41667 1.78473 5.41667 1.66667C5.41667 1.54862 5.37674 1.44966 5.29688 1.3698C5.21701 1.28994 5.11806 1.25001 5 1.25001C4.88194 1.25001 4.78299 1.28994 4.70313 1.3698C4.62326 1.44966 4.58333 1.54862 4.58333 1.66667C4.58333 1.78473 4.62326 1.88369 4.70313 1.96355C4.78299 2.04341 4.88194 2.08334 5 2.08334Z" fill="#1C1B1F"/>
</g>
</svg>
