<svg width="10" height="10" viewBox="0 0 10 10" fill="none" xmlns="http://www.w3.org/2000/svg">
<mask id="mask0_2046_191" style="mask-type:alpha" maskUnits="userSpaceOnUse" x="0" y="0" width="10" height="10">
<rect width="10" height="10" fill="#D9D9D9"/>
</mask>
<g mask="url(#mask0_2046_191)">
<path d="M1.66668 3.33333H8.33334V2.5H1.66668V3.33333ZM0.833344 2.5C0.833344 2.27083 0.914941 2.07465 1.07814 1.91146C1.24133 1.74826 1.43751 1.66666 1.66668 1.66666H8.33334C8.56251 1.66666 8.75869 1.74826 8.92189 1.91146C9.08508 2.07465 9.16668 2.27083 9.16668 2.5V5H1.66668V7.5H3.37501V8.33333H1.66668C1.43751 8.33333 1.24133 8.25173 1.07814 8.08854C0.914941 7.92534 0.833344 7.72916 0.833344 7.5V2.5ZM6.22918 9.16666L4.45834 7.39583L5.04168 6.8125L6.22918 7.97916L8.58334 5.625L9.16668 6.22916L6.22918 9.16666ZM1.66668 2.5V7.5V5.625V6.80208V2.5Z" fill="#025D3C"/>
</g>
</svg>
